{
  "accessors": [
    {
      "bufferView": 0,
      "byteOffset": 0,
      "count": 24,
      "componentType": 5126,
      "type": "VEC3",
      "min": [
        0.0,
        0.0,
        0.0
      ],
      "max": [
        1.0,
        1.0,
        1.0
      ],
      "name": "'block0' position"
    },
    {
      "bufferView": 0,
      "byteOffset": 12,
      "count": 24,
      "componentType": 5126,
      "type": "VEC4",
      "min": [
        0.0,
        0.0,
        0.0,
        1.0
      ],
      "max": [
        0.0,
        0.0,
        0.0,
        1.0
      ],
      "name": "'block0' base color"
    },
    {
      "bufferView": 1,
      "byteOffset": 0,
      "count": 36,
      "componentType": 5123,
      "type": "SCALAR",
      "name": "'block0' opaque index"
    },
    {
      "bufferView": 2,
      "byteOffset": 0,
      "count": 24,
      "componentType": 5126,
      "type": "VEC3",
      "min": [
        0.0,
        0.0,
        0.0
      ],
      "max": [
        1.0,
        1.0,
        1.0
      ],
      "name": "'block1' position"
    },
    {
      "bufferView": 2,
      "byteOffset": 12,
      "count": 24,
      "componentType": 5126,
      "type": "VEC4",
      "min": [
        1.0,
        1.0,
        1.0,
        1.0
      ],
      "max": [
        1.0,
        1.0,
        1.0,
        1.0
      ],
      "name": "'block1' base color"
    },
    {
      "bufferView": 3,
      "byteOffset": 0,
      "count": 36,
      "componentType": 5123,
      "type": "SCALAR",
      "name": "'block1' opaque index"
    },
    {
      "bufferView": 4,
      "byteOffset": 0,
      "count": 24,
      "componentType": 5126,
      "type": "VEC3",
      "min": [
        0.0,
        0.0,
        0.0
      ],
      "max": [
        1.0,
        1.0,
        1.0
      ],
      "name": "'block2' position"
    },
    {
      "bufferView": 4,
      "byteOffset": 12,
      "count": 24,
      "componentType": 5126,
      "type": "VEC4",
      "min": [
        1.0,
        1.0,
        1.0,
        1.0
      ],
      "max": [
        1.0,
        1.0,
        1.0,
        1.0
      ],
      "name": "'block2' base color"
    },
    {
      "bufferView": 4,
      "byteOffset": 28,
      "count": 24,
      "componentType": 5126,
      "type": "VEC2",
      "min": [
        0.0,
        0.0
      ],
      "max": [
        1.0,
        0.75
      ],
      "name": "'block2' base color texcoords"
    },
    {
      "bufferView": 5,
      "byteOffset": 0,
      "count": 36,
      "componentType": 5123,
      "type": "SCALAR",
      "name": "'block2' opaque index"
    },
    {
      "bufferView": 6,
      "byteOffset": 0,
      "count": 24,
      "componentType": 5126,
      "type": "VEC3",
      "min": [
        0.0,
        0.0,
        0.0
      ],
      "max": [
        1.0,
        1.0,
        1.0
      ],
      "name": "'block3' position"
    },
    {
      "bufferView": 6,
      "byteOffset": 12,
      "count": 24,
      "componentType": 5126,
      "type": "VEC4",
      "min": [
        1.0,
        1.0,
        1.0,
        1.0
      ],
      "max": [
        1.0,
        1.0,
        1.0,
        1.0
      ],
      "name": "'block3' base color"
    },
    {
      "bufferView": 6,
      "byteOffset": 28,
      "count": 24,
      "componentType": 5126,
      "type": "VEC2",
      "min": [
        0.0,
        0.25
      ],
      "max": [
        1.0,
        1.0
      ],
      "name": "'block3' base color texcoords"
    },
    {
      "bufferView": 7,
      "byteOffset": 0,
      "count": 36,
      "componentType": 5123,
      "type": "SCALAR",
      "name": "'block3' opaque index"
    }
  ],
  "asset": {
    "generator": "all-is-cubes",
    "version": "2.0"
  },
  "buffers": [
    {
      "byteLength": 936,
      "name": "'block0' data",
      "uri": "data:application/gltf-buffer;base64,"
    },
    {
      "byteLength": 936,
      "name": "'block1' data",
      "uri": "data:application/gltf-buffer;base64,"
    },
    {
      "byteLength": 936,
      "name": "'block2' data",
      "uri": "data:application/gltf-buffer;base64,"
    },
    {
      "byteLength": 936,
      "name": "'block3' data",
      "uri": "data:application/gltf-buffer;base64,"
    },
    {
      "byteLength": 1968,
      "name": "texture",
      "uri": "data:application/gltf-buffer;base64,"
    }
  ],
  "bufferViews": [
    {
      "buffer": 0,
      "byteLength": 864,
      "byteStride": 36,
      "name": "'block0' vertex",
      "target": 34962
    },
    {
      "buffer": 0,
      "byteLength": 72,
      "byteOffset": 864,
      "name": "'block0' index",
      "target": 34963
    },
    {
      "buffer": 1,
      "byteLength": 864,
      "byteStride": 36,
      "name": "'block1' vertex",
      "target": 34962
    },
    {
      "buffer": 1,
      "byteLength": 72,
      "byteOffset": 864,
      "name": "'block1' index",
      "target": 34963
    },
    {
      "buffer": 2,
      "byteLength": 864,
      "byteStride": 36,
      "name": "'block2' vertex",
      "target": 34962
    },
    {
      "buffer": 2,
      "byteLength": 72,
      "byteOffset": 864,
      "name": "'block2' index",
      "target": 34963
    },
    {
      "buffer": 3,
      "byteLength": 864,
      "byteStride": 36,
      "name": "'block3' vertex",
      "target": 34962
    },
    {
      "buffer": 3,
      "byteLength": 72,
      "byteOffset": 864,
      "name": "'block3' index",
      "target": 34963
    },
    {
      "buffer": 4,
      "byteLength": 1968,
      "name": "block texture"
    }
  ],
  "extensionsUsed": [
    "KHR_materials_transmission",
    "KHR_materials_volume"
  ],
  "images": [
    {
      "bufferView": 8,
      "mimeType": "image/png",
      "name": "block texture"
    }
  ],
  "materials": [
    {
      "alphaMode": "OPAQUE",
      "doubleSided": false,
      "name": "all-is-cubes opaque untextured",
      "pbrMetallicRoughness": {
        "baseColorFactor": [
          1.0,
          1.0,
          1.0,
          1.0
        ],
        "metallicFactor": 0.0,
        "roughnessFactor": 1.0
      },
      "emissiveFactor": [
        0.0,
        0.0,
        0.0
      ]
    },
    {
      "alphaMode": "OPAQUE",
      "doubleSided": false,
      "name": "all-is-cubes opaque textured",
      "pbrMetallicRoughness": {
        "baseColorFactor": [
          1.0,
          1.0,
          1.0,
          1.0
        ],
        "baseColorTexture": {
          "index": 0,
          "texCoord": 0
        },
        "metallicFactor": 0.0,
        "roughnessFactor": 1.0
      },
      "emissiveFactor": [
        0.0,
        0.0,
        0.0
      ]
    }
  ],
  "meshes": [
    {
      "name": "'block0' mesh",
      "primitives": [
        {
          "attributes": {
            "POSITION": 0,
            "COLOR_0": 1
          },
          "indices": 2,
          "material": 0
        }
      ]
    },
    {
      "name": "'block1' mesh",
      "primitives": [
        {
          "attributes": {
            "POSITION": 3,
            "COLOR_0": 4
          },
          "indices": 5,
          "material": 0
        }
      ]
    },
    {
      "name": "'block2' mesh",
      "primitives": [
        {
          "attributes": {
            "POSITION": 6,
            "COLOR_0": 7,
            "TEXCOORD_0": 8
          },
          "indices": 9,
          "material": 1
        }
      ]
    },
    {
      "name": "'block3' mesh",
      "primitives": [
        {
          "attributes": {
            "POSITION": 10,
            "COLOR_0": 11,
            "TEXCOORD_0": 12
          },
          "indices": 13,
          "material": 1
        }
      ]
    }
  ],
  "nodes": [
    {
      "mesh": 0,
      "name": "'block0'",
      "translation": [
        0.0,
        0.0,
        0.0
      ]
    },
    {
      "mesh": 1,
      "name": "'block1'",
      "translation": [
        2.0,
        0.0,
        0.0
      ]
    },
    {
      "mesh": 2,
      "name": "'block2'",
      "translation": [
        4.0,
        0.0,
        0.0
      ]
    },
    {
      "mesh": 3,
      "name": "'block3'",
      "translation": [
        6.0,
        0.0,
        0.0
      ]
    }
  ],
  "samplers": [
    {
      "magFilter": 9728,
      "minFilter": 9729,
      "name": "block texture",
      "wrapS": 33071,
      "wrapT": 33071
    }
  ],
  "scenes": [
    {
      "name": "block preview scene",
      "nodes": [
        0,
        1,
        2,
        3
      ]
    }
  ],
  "textures": [
    {
      "sampler": 0,
      "source": 0
    }
  ]
}