{
  "accessors": [
    {
      "bufferView": 0,
      "byteOffset": 0,
      "count": 24,
      "componentType": 5126,
      "type": "VEC3",
      "min": [
        0.0,
        0.0,
        0.0
      ],
      "max": [
        1.0,
        1.0,
        1.0
      ],
      "name": "'block0' position"
    },
    {
      "bufferView": 0,
      "byteOffset": 12,
      "count": 24,
      "componentType": 5126,
      "type": "VEC4",
      "min": [
        0.04288181662559509,
        0.040675945580005646,
        0.050833117216825485,
        1.0
      ],
      "max": [
        0.04288181662559509,
        0.040675945580005646,
        0.050833117216825485,
        1.0
      ],
      "name": "'block0' base color"
    },
    {
      "bufferView": 0,
      "byteOffset": 28,
      "count": 24,
      "componentType": 5126,
      "type": "VEC2",
      "min": [
        0.0,
        0.0
      ],
      "max": [
        0.0,
        0.0
      ],
      "name": "'block0' base color texcoords"
    },
    {
      "bufferView": 1,
      "byteOffset": 0,
      "count": 36,
      "componentType": 5123,
      "type": "SCALAR",
      "name": "'block0' opaque index"
    },
    {
      "bufferView": 2,
      "byteOffset": 0,
      "count": 24,
      "componentType": 5126,
      "type": "VEC3",
      "min": [
        0.0,
        0.0,
        0.0
      ],
      "max": [
        1.0,
        1.0,
        1.0
      ],
      "name": "'block1' position"
    },
    {
      "bufferView": 2,
      "byteOffset": 12,
      "count": 24,
      "componentType": 5126,
      "type": "VEC4",
      "min": [
        0.873272180557251,
        0.8710663318634033,
        0.8812234401702881,
        1.0
      ],
      "max": [
        0.873272180557251,
        0.8710663318634033,
        0.8812234401702881,
        1.0
      ],
      "name": "'block1' base color"
    },
    {
      "bufferView": 2,
      "byteOffset": 28,
      "count": 24,
      "componentType": 5126,
      "type": "VEC2",
      "min": [
        0.0,
        0.0
      ],
      "max": [
        0.0,
        0.0
      ],
      "name": "'block1' base color texcoords"
    },
    {
      "bufferView": 3,
      "byteOffset": 0,
      "count": 36,
      "componentType": 5123,
      "type": "SCALAR",
      "name": "'block1' opaque index"
    }
  ],
  "asset": {
    "generator": "all-is-cubes",
    "version": "2.0"
  },
  "buffers": [
    {
      "byteLength": 936,
      "name": "'block0' data",
      "uri": "data:application/gltf-buffer;base64,"
    },
    {
      "byteLength": 936,
      "name": "'block1' data",
      "uri": "data:application/gltf-buffer;base64,"
    }
  ],
  "bufferViews": [
    {
      "buffer": 0,
      "byteLength": 864,
      "byteStride": 36,
      "name": "'block0' vertex",
      "target": 34962
    },
    {
      "buffer": 0,
      "byteLength": 72,
      "byteOffset": 864,
      "name": "'block0' index",
      "target": 34963
    },
    {
      "buffer": 1,
      "byteLength": 864,
      "byteStride": 36,
      "name": "'block1' vertex",
      "target": 34962
    },
    {
      "buffer": 1,
      "byteLength": 72,
      "byteOffset": 864,
      "name": "'block1' index",
      "target": 34963
    }
  ],
  "extensionsUsed": [
    "KHR_materials_transmission",
    "KHR_materials_volume"
  ],
  "materials": [
    {
      "alphaMode": "OPAQUE",
      "doubleSided": false,
      "name": "aic-vertex-opaque",
      "pbrMetallicRoughness": {
        "baseColorFactor": [
          1.0,
          1.0,
          1.0,
          1.0
        ],
        "metallicFactor": 0.0,
        "roughnessFactor": 1.0
      },
      "emissiveFactor": [
        0.0,
        0.0,
        0.0
      ]
    },
    {
      "alphaMode": "BLEND",
      "doubleSided": false,
      "name": "aic-vertex-transparent",
      "pbrMetallicRoughness": {
        "baseColorFactor": [
          1.0,
          1.0,
          1.0,
          1.0
        ],
        "metallicFactor": 0.0,
        "roughnessFactor": 1.0
      },
      "emissiveFactor": [
        0.0,
        0.0,
        0.0
      ],
      "extensions": {
        "KHR_materials_transmission": {
          "transmissionFactor": 0.0
        }
      }
    }
  ],
  "meshes": [
    {
      "name": "'block0' mesh",
      "primitives": [
        {
          "attributes": {
            "POSITION": 0,
            "COLOR_0": 1,
            "TEXCOORD_0": 2
          },
          "indices": 3,
          "material": 0
        }
      ]
    },
    {
      "name": "'block1' mesh",
      "primitives": [
        {
          "attributes": {
            "POSITION": 4,
            "COLOR_0": 5,
            "TEXCOORD_0": 6
          },
          "indices": 7,
          "material": 0
        }
      ]
    }
  ],
  "nodes": [
    {
      "mesh": 0,
      "name": "'block0'"
    },
    {
      "mesh": 1,
      "name": "'block1'"
    }
  ],
  "scenes": [
    {
      "name": "'block0' block display scene",
      "nodes": [
        0
      ]
    },
    {
      "name": "'block1' block display scene",
      "nodes": [
        1
      ]
    }
  ]
}