{
  "accessors": [
    {
      "bufferView": 0,
      "byteOffset": 0,
      "count": 24,
      "componentType": 5126,
      "type": "VEC3",
      "min": [
        0.0,
        0.0,
        0.0
      ],
      "max": [
        1.0,
        1.0,
        1.0
      ],
      "name": "'block0' position"
    },
    {
      "bufferView": 0,
      "byteOffset": 12,
      "count": 24,
      "componentType": 5126,
      "type": "VEC4",
      "min": [
        0.042881786823272705,
        0.04067595675587654,
        0.050832804292440414,
        1.0
      ],
      "max": [
        0.042881786823272705,
        0.04067595675587654,
        0.050832804292440414,
        1.0
      ],
      "name": "'block0' color"
    },
    {
      "bufferView": 1,
      "byteOffset": 0,
      "count": 36,
      "componentType": 5123,
      "type": "SCALAR",
      "name": "'block0' opaque index"
    },
    {
      "bufferView": 2,
      "byteOffset": 0,
      "count": 24,
      "componentType": 5126,
      "type": "VEC3",
      "min": [
        0.0,
        0.0,
        0.0
      ],
      "max": [
        1.0,
        1.0,
        1.0
      ],
      "name": "'block1' position"
    },
    {
      "bufferView": 2,
      "byteOffset": 12,
      "count": 24,
      "componentType": 5126,
      "type": "VEC4",
      "min": [
        0.8732726573944092,
        0.8710667490959167,
        0.8812239170074463,
        1.0
      ],
      "max": [
        0.8732726573944092,
        0.8710667490959167,
        0.8812239170074463,
        1.0
      ],
      "name": "'block1' color"
    },
    {
      "bufferView": 3,
      "byteOffset": 0,
      "count": 36,
      "componentType": 5123,
      "type": "SCALAR",
      "name": "'block1' opaque index"
    }
  ],
  "asset": {
    "generator": "all-is-cubes",
    "version": "2.0"
  },
  "buffers": [
    {
      "byteLength": 744,
      "name": "'block0' data",
      "uri": "data:application/gltf-buffer;base64,"
    },
    {
      "byteLength": 744,
      "name": "'block1' data",
      "uri": "data:application/gltf-buffer;base64,"
    }
  ],
  "bufferViews": [
    {
      "buffer": 0,
      "byteLength": 672,
      "byteStride": 28,
      "name": "'block0' vertex",
      "target": 34962
    },
    {
      "buffer": 0,
      "byteLength": 72,
      "byteOffset": 672,
      "name": "'block0' index",
      "target": 34963
    },
    {
      "buffer": 1,
      "byteLength": 672,
      "byteStride": 28,
      "name": "'block1' vertex",
      "target": 34962
    },
    {
      "buffer": 1,
      "byteLength": 72,
      "byteOffset": 672,
      "name": "'block1' index",
      "target": 34963
    }
  ],
  "extensionsUsed": [
    "KHR_materials_transmission",
    "KHR_materials_volume"
  ],
  "materials": [
    {
      "alphaMode": "OPAQUE",
      "doubleSided": false,
      "name": "aic-vertex-opaque",
      "pbrMetallicRoughness": {
        "baseColorFactor": [
          1.0,
          1.0,
          1.0,
          1.0
        ],
        "metallicFactor": 0.0,
        "roughnessFactor": 1.0
      },
      "emissiveFactor": [
        0.0,
        0.0,
        0.0
      ]
    },
    {
      "alphaMode": "BLEND",
      "doubleSided": false,
      "name": "aic-vertex-transparent",
      "pbrMetallicRoughness": {
        "baseColorFactor": [
          1.0,
          1.0,
          1.0,
          1.0
        ],
        "metallicFactor": 0.0,
        "roughnessFactor": 1.0
      },
      "emissiveFactor": [
        0.0,
        0.0,
        0.0
      ],
      "extensions": {
        "KHR_materials_transmission": {
          "transmissionFactor": 0.0
        }
      }
    }
  ],
  "meshes": [
    {
      "name": "'block0' mesh",
      "primitives": [
        {
          "attributes": {
            "POSITION": 0,
            "COLOR_0": 1
          },
          "indices": 2,
          "material": 0
        }
      ]
    },
    {
      "name": "'block1' mesh",
      "primitives": [
        {
          "attributes": {
            "POSITION": 3,
            "COLOR_0": 4
          },
          "indices": 5,
          "material": 0
        }
      ]
    }
  ],
  "nodes": [
    {
      "mesh": 0,
      "name": "'block0'"
    },
    {
      "mesh": 1,
      "name": "'block1'"
    }
  ],
  "scenes": [
    {
      "name": "'block0' display scene",
      "nodes": [
        0
      ]
    },
    {
      "name": "'block1' display scene",
      "nodes": [
        1
      ]
    }
  ]
}