{
  "accessors": [
    {
      "type": "VEC3",
      "bufferView": 0,
      "byteOffset": 0,
      "count": 24,
      "componentType": 5126,
      "min": [
        0.0,
        0.0,
        0.0
      ],
      "max": [
        1.0,
        1.0,
        1.0
      ],
      "name": "'x' position"
    },
    {
      "type": "VEC4",
      "bufferView": 0,
      "byteOffset": 12,
      "count": 24,
      "componentType": 5126,
      "min": [
        0.5,
        0.5,
        0.5,
        1.0
      ],
      "max": [
        0.5,
        0.5,
        0.5,
        1.0
      ],
      "name": "'x' base color"
    },
    {
      "type": "VEC2",
      "bufferView": 0,
      "byteOffset": 28,
      "count": 24,
      "componentType": 5126,
      "min": [
        0.0,
        0.0
      ],
      "max": [
        0.0,
        0.0
      ],
      "name": "'x' base color texcoords"
    },
    {
      "type": "SCALAR",
      "bufferView": 1,
      "byteOffset": 0,
      "count": 36,
      "componentType": 5123,
      "name": "'x' opaque index"
    }
  ],
  "asset": {
    "generator": "all-is-cubes",
    "version": "2.0"
  },
  "buffers": [
    {
      "byteLength": 936,
      "name": "'x' data",
      "uri": "data:application/gltf-buffer;base64,"
    }
  ],
  "bufferViews": [
    {
      "buffer": 0,
      "byteLength": 864,
      "byteStride": 36,
      "name": "'x' vertex",
      "target": 34962
    },
    {
      "buffer": 0,
      "byteLength": 72,
      "byteOffset": 864,
      "name": "'x' index",
      "target": 34963
    }
  ],
  "extensionsUsed": [
    "KHR_materials_transmission",
    "KHR_materials_volume"
  ],
  "materials": [
    {
      "name": "aic-vertex-opaque",
      "pbrMetallicRoughness": {
        "metallicFactor": 0.0
      }
    },
    {
      "alphaMode": "BLEND",
      "name": "aic-vertex-transparent",
      "pbrMetallicRoughness": {
        "metallicFactor": 0.0
      },
      "extensions": {
        "KHR_materials_transmission": {},
        "KHR_materials_volume": {
          "thicknessFactor": 1.0
        }
      }
    }
  ],
  "meshes": [
    {
      "name": "'x' mesh",
      "primitives": [
        {
          "attributes": {
            "POSITION": 0,
            "COLOR_0": 1,
            "TEXCOORD_0": 2
          },
          "indices": 3,
          "material": 0
        }
      ]
    }
  ],
  "nodes": [
    {
      "mesh": 0,
      "name": "'x'"
    }
  ],
  "scenes": [
    {
      "name": "'x' space scene",
      "nodes": [
        0
      ]
    }
  ]
}